<svg width="17" height="17" viewBox="0 0 17 17" fill="none" xmlns="http://www.w3.org/2000/svg">
<path d="M17 8.5C17 3.81295 13.1871 -1.66669e-07 8.5 -3.71547e-07C3.81295 -5.76424e-07 1.74068e-06 3.81295 1.5358e-06 8.5C1.33092e-06 13.1871 3.81295 17 8.5 17C13.1871 17 17 13.1871 17 8.5ZM7.9992 11.1258L4.45755 7.58412C4.31943 7.446 4.25 7.26468 4.25 7.08332C4.25 6.902 4.31943 6.72064 4.45755 6.58252C4.7345 6.30557 5.18218 6.30557 5.45913 6.58252L8.5 9.62343L11.5409 6.58255C11.8178 6.3056 12.2655 6.3056 12.5424 6.58255C12.8194 6.8595 12.8194 7.30718 12.5424 7.58412L9.00077 11.1258C8.72382 11.4027 8.27618 11.4027 7.9992 11.1258Z" fill="#004481"/>
</svg>
