<svg width="12" height="12" viewBox="0 0 12 12" fill="none" xmlns="http://www.w3.org/2000/svg">
<path d="M6 12C9.31371 12 12 9.31371 12 6C12 2.68629 9.31371 0 6 0C2.68629 0 0 2.68629 0 6C0 9.31371 2.68629 12 6 12Z" fill="#004481"/>
<path d="M6.54126 5.99667C6.148 5.60403 5.76602 5.22299 5.38404 4.84164C5.06008 4.518 4.73612 4.19498 4.41342 3.87039C4.27104 3.72707 4.20831 3.55772 4.26853 3.35701C4.32498 3.16822 4.45356 3.05218 4.64361 3.00733C4.78912 2.97284 4.92335 3.00733 5.04252 3.09514C5.08642 3.12745 5.12563 3.16633 5.1642 3.20491C5.95575 3.99552 6.74699 4.78676 7.53823 5.578C7.8255 5.86527 7.82613 6.13497 7.54011 6.4213C6.74072 7.22069 5.94133 8.0204 5.14099 8.81917C4.92335 9.0365 4.66085 9.06598 4.44478 8.90227C4.22274 8.73386 4.1804 8.4237 4.35101 8.20355C4.38425 8.16058 4.42314 8.12107 4.46171 8.0825C5.12249 7.42109 5.78389 6.76 6.44499 6.09859C6.47478 6.06849 6.503 6.03713 6.54126 5.99667Z" fill="#14C8BE"/>
</svg>
