<svg width="36" height="37" viewBox="0 0 36 37" fill="none" xmlns="http://www.w3.org/2000/svg">
<circle cx="17.988" cy="18.0739" r="17.988" fill="#14C8BE"/>
<path d="M29.6361 20.4614C28.9593 25.348 25.1295 29.5483 20.3139 30.6315C16.5369 31.4807 13.075 30.762 9.95584 28.4495C9.85915 28.3778 9.75434 28.3109 9.72189 28.1858C9.67726 28.0161 9.71107 27.8606 9.85983 27.7571C10.0241 27.6428 10.1918 27.6625 10.35 27.7821C10.772 28.1026 11.2081 28.4008 11.6679 28.6652C17.5701 32.0602 25.139 29.624 27.9572 23.4216C30.3407 18.1753 28.511 11.9905 23.6582 8.89365C17.2333 4.79275 8.68466 7.90037 6.39316 15.1738C5.55743 17.8264 5.70618 20.4242 6.87323 22.955C7.09907 23.4459 7.38103 23.9023 7.77388 24.281C8.37025 24.8564 8.98014 24.9064 9.66171 24.4379C9.90175 24.2729 10.1046 24.0687 10.3054 23.8597C10.3953 23.7658 10.415 23.6866 10.3656 23.5622C10.2946 23.3844 10.2425 23.1978 10.1993 23.0112C10.0694 22.4587 10.2777 21.9334 10.7645 21.644C11.5428 21.1815 12.3271 20.7291 13.1162 20.2849C13.6281 19.9968 14.1954 20.0807 14.6234 20.4904C14.8614 20.7183 15.0913 20.9543 15.3232 21.1882C15.503 21.3694 15.7032 21.4039 15.9371 21.2985C17.8486 20.4391 19.2327 19.0543 20.0928 17.1441C20.1969 16.9122 20.1685 16.71 19.9853 16.5295C19.7568 16.3037 19.5282 16.0772 19.3044 15.8473C18.8663 15.3969 18.7905 14.831 19.1036 14.2813C19.5356 13.5226 19.9718 12.766 20.414 12.0128C20.7183 11.4942 21.2288 11.2643 21.8055 11.4049C22.9421 11.6821 23.9023 12.2163 24.4053 13.3407C24.7806 14.1799 24.7698 15.0582 24.5899 15.9392C24.2566 17.5708 23.4858 19.0049 22.554 20.3613C20.8109 22.8982 18.4349 24.592 15.5416 25.5826C14.8309 25.826 14.0933 25.9606 13.3393 25.8902C12.1574 25.78 11.5408 25.423 10.801 24.4703C10.6016 24.6556 10.4075 24.8463 10.1878 25.0079C9.15054 25.7706 8.08153 25.6921 7.17953 24.7739C6.53042 24.1133 6.14231 23.2972 5.82181 22.4445C3.91369 17.372 5.93675 11.7491 10.1458 8.67187C11.9951 7.32023 14.0635 6.5467 16.3442 6.34183C16.3442 6.34183 17.6181 6.22823 18.8426 6.33439C20.0664 6.44055 21.2206 6.77119 22.3431 7.24044C23.5459 7.74283 24.6292 8.44333 25.6015 9.30611C26.6887 10.271 27.6036 11.3799 28.3034 12.6626C29.0222 13.9804 29.4941 15.3767 29.7024 16.8629C29.703 16.8629 29.8991 18.5762 29.6361 20.4614Z" fill="white"/>
</svg>
